<?xml version="1.0" encoding="UTF-8" standalone="no"?>
<!DOCTYPE svg PUBLIC "-//W3C//DTD SVG 1.1//EN"
 "http://www.w3.org/Graphics/SVG/1.1/DTD/svg11.dtd">
<!-- Generated by graphviz version 2.40.1 (20161225.0304)
 -->
<!-- Title: %3 Pages: 1 -->
<svg width="6079pt" height="1012pt"
 viewBox="0.00 0.00 6079.00 1012.00" xmlns="http://www.w3.org/2000/svg" xmlns:xlink="http://www.w3.org/1999/xlink">
<g id="graph0" class="graph" transform="scale(1 1) rotate(0) translate(4 1008)">
<title>%3</title>
<polygon fill="#ffffff" stroke="transparent" points="-4,4 -4,-1008 6075,-1008 6075,4 -4,4"/>
<g id="clust1" class="cluster">
<title>cluster_b</title>
<polygon fill="none" stroke="#000000" points="3735,-8 3735,-492 6063,-492 6063,-8 3735,-8"/>
</g>
<g id="clust2" class="cluster">
<title>cluster_two</title>
<polygon fill="none" stroke="#000000" points="8,-800 8,-996 2992,-996 2992,-800 8,-800"/>
</g>
<g id="clust3" class="cluster">
<title>cluster_past</title>
<polygon fill="none" stroke="#000000" points="3000,-728 3000,-852 4440,-852 4440,-728 3000,-728"/>
</g>
<g id="clust4" class="cluster">
<title>cluster_squirrel</title>
<polygon fill="none" stroke="#000000" points="2393,-440 2393,-708 3727,-708 3727,-440 2393,-440"/>
</g>
<!-- b_0 -->
<g id="node1" class="node">
<title>b_0</title>
<polygon fill="none" stroke="#000000" points="5249,-484 4529,-484 4529,-448 5249,-448 5249,-484"/>
<text text-anchor="middle" x="4889" y="-461.8" font-family="Times,serif" font-size="14.00" fill="#000000">0:00: Raccoon Egg left through a tunnel and bumped into a time squirrel and wrestled it for its clock. The time squirrel wrenched it back and went back down the tunnel.</text>
</g>
<!-- b_1 -->
<g id="node2" class="node">
<title>b_1</title>
<polygon fill="none" stroke="#000000" points="6034.6025,-412 3743.3975,-412 3743.3975,-376 6034.6025,-376 6034.6025,-412"/>
<text text-anchor="middle" x="4889" y="-389.8" font-family="Times,serif" font-size="14.00" fill="#000000">1:00: An Entangle spell hit the bee cavern, immobilizing the rest of the party, except for Whewdo. Blundersdottir stared at a spot with surprise; Makalbly Jane interpreted this as a ghost sighting. Raccoon Egg saw the vines and headed to the other end of the &#160;tunnel, emerging in the silvery glass&#45;leafed oak&#39;s cavern. She negotiated a neutral disposition from the three time squirrels there and hugged the tree.</text>
</g>
<!-- b_0&#45;&gt;b_1 -->
<g id="edge1" class="edge">
<title>b_0&#45;&gt;b_1</title>
<path fill="none" stroke="#000000" d="M4889,-447.8314C4889,-440.131 4889,-430.9743 4889,-422.4166"/>
<polygon fill="#000000" stroke="#000000" points="4892.5001,-422.4132 4889,-412.4133 4885.5001,-422.4133 4892.5001,-422.4132"/>
</g>
<!-- two_1 -->
<g id="node8" class="node">
<title>two_1</title>
<polygon fill="none" stroke="#000000" points="2445.5753,-988 1628.4247,-988 1628.4247,-952 2445.5753,-952 2445.5753,-988"/>
<text text-anchor="middle" x="2037" y="-965.8" font-family="Times,serif" font-size="14.00" fill="#000000">1:00: Raccoon Egg ran to get the party from the Bee Cavern. They returned with her through the tunnel to the silvery glass&#45;leafed oak&#39;s cavern.</text>
</g>
<!-- b_0&#45;&gt;two_1 -->
<g id="edge8" class="edge">
<title>b_0&#45;&gt;two_1</title>
<path fill="none" stroke="#000000" d="M4844.4301,-484.1144C4798.014,-506.2829 4732,-548.6038 4732,-610 4732,-826 4732,-826 4732,-826 4732,-882.2817 3213.0526,-935.2179 2455.8397,-958.1105"/>
<polygon fill="#000000" stroke="#000000" points="2455.4701,-954.62 2445.5803,-958.4203 2455.6814,-961.6168 2455.4701,-954.62"/>
</g>
<!-- b_2 -->
<g id="node3" class="node">
<title>b_2</title>
<polygon fill="none" stroke="#000000" points="5768.1788,-340 4583.8212,-340 4583.8212,-304 5768.1788,-304 5768.1788,-340"/>
<text text-anchor="middle" x="5176" y="-317.8" font-family="Times,serif" font-size="14.00" fill="#000000">2:00: Whewdo freed Makalbly Jane. They both worked on freeing Raven, who discussed a way to confirm ghost presence. The oak returned Raccoon Egg to human form. She went back toward the bee cavern.</text>
</g>
<!-- b_1&#45;&gt;b_2 -->
<g id="edge2" class="edge">
<title>b_1&#45;&gt;b_2</title>
<path fill="none" stroke="#000000" d="M4961.0518,-375.9243C5001.4804,-365.7819 5052.0672,-353.0912 5094.008,-342.5694"/>
<polygon fill="#000000" stroke="#000000" points="5095.0708,-345.9113 5103.9186,-340.0831 5093.3675,-339.1217 5095.0708,-345.9113"/>
</g>
<!-- b_2&#45;&gt;b_0 -->
<g id="edge7" class="edge">
<title>b_2&#45;&gt;b_0</title>
<path fill="none" stroke="#000000" d="M5689.2233,-340.0016C5868.8122,-348.8699 6029.8397,-360.9314 6044,-376 6054.9568,-387.6597 6055.0464,-400.4251 6044,-412 6016.7483,-440.5555 5586.8717,-454.4071 5259.4728,-460.8431"/>
<polygon fill="#000000" stroke="#000000" points="5259.2605,-457.3465 5249.3307,-461.0408 5259.397,-464.3452 5259.2605,-457.3465"/>
</g>
<!-- b_3 -->
<g id="node4" class="node">
<title>b_3</title>
<polygon fill="none" stroke="#000000" points="5749.2325,-268 4602.7675,-268 4602.7675,-232 5749.2325,-232 5749.2325,-268"/>
<text text-anchor="middle" x="5176" y="-245.8" font-family="Times,serif" font-size="14.00" fill="#000000">3:00: Whewdo and Makalbly Jane freed Raven. Human Egg returned and dove perfectly through an improbably winding void in the entangling vines to rejoin the party without getting entangled herself.</text>
</g>
<!-- b_2&#45;&gt;b_3 -->
<g id="edge3" class="edge">
<title>b_2&#45;&gt;b_3</title>
<path fill="none" stroke="#000000" d="M5176,-303.8314C5176,-296.131 5176,-286.9743 5176,-278.4166"/>
<polygon fill="#000000" stroke="#000000" points="5179.5001,-278.4132 5176,-268.4133 5172.5001,-278.4133 5179.5001,-278.4132"/>
</g>
<!-- b_4 -->
<g id="node5" class="node">
<title>b_4</title>
<polygon fill="none" stroke="#000000" points="5585.2588,-196 4766.7412,-196 4766.7412,-160 5585.2588,-160 5585.2588,-196"/>
<text text-anchor="middle" x="5176" y="-173.8" font-family="Times,serif" font-size="14.00" fill="#000000">4:00: Oika and Raven&#39;s eyes blanked out for a moment, then they awoke, healed completely – but with no irises. Cozy was nowhere to be seen.</text>
</g>
<!-- b_3&#45;&gt;b_4 -->
<g id="edge4" class="edge">
<title>b_3&#45;&gt;b_4</title>
<path fill="none" stroke="#000000" d="M5176,-231.8314C5176,-224.131 5176,-214.9743 5176,-206.4166"/>
<polygon fill="#000000" stroke="#000000" points="5179.5001,-206.4132 5176,-196.4133 5172.5001,-206.4133 5179.5001,-206.4132"/>
</g>
<!-- b_5 -->
<g id="node6" class="node">
<title>b_5</title>
<polygon fill="none" stroke="#000000" points="5654.835,-124 4697.165,-124 4697.165,-88 5654.835,-88 5654.835,-124"/>
<text text-anchor="middle" x="5176" y="-101.8" font-family="Times,serif" font-size="14.00" fill="#000000">5:00: Raven dismissed the Entangle, though no one saw her cast it. It was not the usual no&#45;fuss Entangle dismissal. There was a bright flash and an acrid scent in the air.</text>
</g>
<!-- b_4&#45;&gt;b_5 -->
<g id="edge5" class="edge">
<title>b_4&#45;&gt;b_5</title>
<path fill="none" stroke="#000000" d="M5176,-159.8314C5176,-152.131 5176,-142.9743 5176,-134.4166"/>
<polygon fill="#000000" stroke="#000000" points="5179.5001,-134.4132 5176,-124.4133 5172.5001,-134.4133 5179.5001,-134.4132"/>
</g>
<!-- b_6 -->
<g id="node7" class="node">
<title>b_6</title>
<polygon fill="none" stroke="#000000" points="5648.3877,-52 4703.6123,-52 4703.6123,-16 5648.3877,-16 5648.3877,-52"/>
<text text-anchor="middle" x="5176" y="-29.8" font-family="Times,serif" font-size="14.00" fill="#000000">6:00: The party traveled to the oak cavern. There, Cozy stood, wearing a clock. She teleported to Raven, ate a Goodberry out of her bag, then flew away, disappearing</text>
</g>
<!-- b_5&#45;&gt;b_6 -->
<g id="edge6" class="edge">
<title>b_5&#45;&gt;b_6</title>
<path fill="none" stroke="#000000" d="M5176,-87.8314C5176,-80.131 5176,-70.9743 5176,-62.4166"/>
<polygon fill="#000000" stroke="#000000" points="5179.5001,-62.4132 5176,-52.4133 5172.5001,-62.4133 5179.5001,-62.4132"/>
</g>
<!-- two_2 -->
<g id="node9" class="node">
<title>two_2</title>
<polygon fill="none" stroke="#000000" points="2983.9844,-916 16.0156,-916 16.0156,-880 2983.9844,-880 2983.9844,-916"/>
<text text-anchor="middle" x="1500" y="-893.8" font-family="Times,serif" font-size="14.00" fill="#000000">2:00: The party emerged from the tunnel into the silvery glass&#45;leafed oak&#39;s cavern. As a group, they left a poor impression on the three time squirrels that were there, but Whewdo convinced one to take a more neutral stance. Oika attempted something similar using the language of burrowing mammals but failed. Raccoon Egg hugged the tree, and the tree changed her back into human Egg and changed Raven&#39;s Goodberries into regularberries. Two of the time squirrels gazed at Oika and Raven, who immediately disappeared.</text>
</g>
<!-- two_1&#45;&gt;two_2 -->
<g id="edge9" class="edge">
<title>two_1&#45;&gt;two_2</title>
<path fill="none" stroke="#000000" d="M1902.5315,-951.9707C1824.0276,-941.445 1724.9641,-928.1628 1644.757,-917.4088"/>
<polygon fill="#000000" stroke="#000000" points="1644.9487,-913.9032 1634.5722,-916.0432 1644.0184,-920.8411 1644.9487,-913.9032"/>
</g>
<!-- two_3 -->
<g id="node10" class="node">
<title>two_3</title>
<polygon fill="none" stroke="#000000" points="2351.3633,-844 648.6367,-844 648.6367,-808 2351.3633,-808 2351.3633,-844"/>
<text text-anchor="middle" x="1500" y="-821.8" font-family="Times,serif" font-size="14.00" fill="#000000">3:00: Egg continued to hug the tree. The tree turned all of metal equipment (except for her ring and a few other things) into wood. Makalbly Jane struggled to relate pack animal customs and knowledge to time squirrels. A time squirrel gazed at Egg, paralyzing her, and erasing a small part of her brain.</text>
</g>
<!-- two_2&#45;&gt;two_3 -->
<g id="edge10" class="edge">
<title>two_2&#45;&gt;two_3</title>
<path fill="none" stroke="#000000" d="M1500,-879.8314C1500,-872.131 1500,-862.9743 1500,-854.4166"/>
<polygon fill="#000000" stroke="#000000" points="1503.5001,-854.4132 1500,-844.4133 1496.5001,-854.4133 1503.5001,-854.4132"/>
</g>
<!-- p_1 -->
<g id="node11" class="node">
<title>p_1</title>
<polygon fill="none" stroke="#000000" points="4432.4219,-844 3007.5781,-844 3007.5781,-808 4432.4219,-808 4432.4219,-844"/>
<text text-anchor="middle" x="3720" y="-821.8" font-family="Times,serif" font-size="14.00" fill="#000000">1:00: Incorporeal Raven, Oika, and Cozy appeared in the bee cavern. Most of the party, including their other selves, did not see them. Only Blundersdottir looked at them. Raven casts Entangle on the cavern, immobilzing the party and blocking an exit.</text>
</g>
<!-- two_2&#45;&gt;p_1 -->
<g id="edge11" class="edge">
<title>two_2&#45;&gt;p_1</title>
<path fill="none" stroke="#000000" d="M2108.7047,-879.9945C2380.272,-871.7781 2704.1613,-861.727 2996,-852 3067.7314,-849.6092 3143.4569,-846.9924 3217.8318,-844.3692"/>
<polygon fill="#000000" stroke="#000000" points="3217.9708,-847.8665 3227.841,-844.0158 3217.7237,-840.8709 3217.9708,-847.8665"/>
</g>
<!-- p_2 -->
<g id="node12" class="node">
<title>p_2</title>
<polygon fill="none" stroke="#000000" points="3991.7149,-772 3154.2851,-772 3154.2851,-736 3991.7149,-736 3991.7149,-772"/>
<text text-anchor="middle" x="3573" y="-749.8" font-family="Times,serif" font-size="14.00" fill="#000000">2:00: Incorporeal Raven, Oika, and Cozy explored adjacent caverns. They met some moving shadows that recognized them but were disinterested.</text>
</g>
<!-- p_1&#45;&gt;p_2 -->
<g id="edge12" class="edge">
<title>p_1&#45;&gt;p_2</title>
<path fill="none" stroke="#000000" d="M3682.9057,-807.8314C3663.5074,-798.3302 3639.583,-786.6121 3619.0138,-776.5374"/>
<polygon fill="#000000" stroke="#000000" points="3620.3478,-773.2935 3609.8276,-772.038 3617.2686,-779.5799 3620.3478,-773.2935"/>
</g>
<!-- s_0 -->
<g id="node13" class="node">
<title>s_0</title>
<polygon fill="none" stroke="#000000" points="3607.7207,-700 2742.2793,-700 2742.2793,-664 3607.7207,-664 3607.7207,-700"/>
<text text-anchor="middle" x="3175" y="-677.8" font-family="Times,serif" font-size="14.00" fill="#000000">∞:00: Incorporeal Raven, Oika, and Cozy were relocated to a plane that is all void except for a colossal time squirrel, ∞ Squirrel. They made small talk.</text>
</g>
<!-- p_2&#45;&gt;s_0 -->
<g id="edge13" class="edge">
<title>p_2&#45;&gt;s_0</title>
<path fill="none" stroke="#000000" d="M3473.3381,-735.9707C3415.9841,-725.5951 3343.8235,-712.5409 3284.8382,-701.8702"/>
<polygon fill="#000000" stroke="#000000" points="3285.2022,-698.3793 3274.7388,-700.0432 3283.956,-705.2675 3285.2022,-698.3793"/>
</g>
<!-- s_1 -->
<g id="node14" class="node">
<title>s_1</title>
<polygon fill="none" stroke="#000000" points="3713.8692,-628 2416.1308,-628 2416.1308,-592 3713.8692,-592 3713.8692,-628"/>
<text text-anchor="middle" x="3065" y="-605.8" font-family="Times,serif" font-size="14.00" fill="#000000">∞:01: ∞ Squirrel opened two circles in the plane. One showed the party at β3:00. The other showed time squirrels flowing over a world, sometimes carrying glowing sticks, sometimes carrying bodies, appearing and disappearing.</text>
</g>
<!-- s_0&#45;&gt;s_1 -->
<g id="edge14" class="edge">
<title>s_0&#45;&gt;s_1</title>
<path fill="none" stroke="#000000" d="M3147.2424,-663.8314C3133.303,-654.7074 3116.2402,-643.539 3101.2769,-633.7449"/>
<polygon fill="#000000" stroke="#000000" points="3103.0326,-630.711 3092.7488,-628.1628 3099.199,-636.5679 3103.0326,-630.711"/>
</g>
<!-- s_2 -->
<g id="node15" class="node">
<title>s_2</title>
<polygon fill="none" stroke="#000000" points="3718.8359,-556 2401.1641,-556 2401.1641,-520 3718.8359,-520 3718.8359,-556"/>
<text text-anchor="middle" x="3060" y="-533.8" font-family="Times,serif" font-size="14.00" fill="#000000">∞:02: As Raven moved toward the party circle, a sliver knife dropped into her hand, and the circle focused on the back of corporeal Raven&#39;s head. She stabbed the party circle. A hole opened in corporeal Raven&#39;s head. Raven went in.</text>
</g>
<!-- s_1&#45;&gt;s_2 -->
<g id="edge15" class="edge">
<title>s_1&#45;&gt;s_2</title>
<path fill="none" stroke="#000000" d="M3063.7383,-591.8314C3063.2035,-584.131 3062.5677,-574.9743 3061.9734,-566.4166"/>
<polygon fill="#000000" stroke="#000000" points="3065.4632,-566.1467 3061.2787,-556.4133 3058.48,-566.6317 3065.4632,-566.1467"/>
</g>
<!-- s_3 -->
<g id="node16" class="node">
<title>s_3</title>
<polygon fill="none" stroke="#000000" points="3486.4905,-484 3097.5095,-484 3097.5095,-448 3486.4905,-448 3486.4905,-484"/>
<text text-anchor="middle" x="3292" y="-461.8" font-family="Times,serif" font-size="14.00" fill="#000000">∞:03: Oika did the same with the circle and corporeal Oika&#39;s head.</text>
</g>
<!-- s_2&#45;&gt;s_3 -->
<g id="edge16" class="edge">
<title>s_2&#45;&gt;s_3</title>
<path fill="none" stroke="#000000" d="M3118.2439,-519.9243C3150.3734,-509.9531 3190.4394,-497.5188 3223.9982,-487.104"/>
<polygon fill="#000000" stroke="#000000" points="3225.2189,-490.3899 3233.7321,-484.0831 3223.144,-483.7045 3225.2189,-490.3899"/>
</g>
<!-- s_3&#45;&gt;b_1 -->
<g id="edge17" class="edge">
<title>s_3&#45;&gt;b_1</title>
<path fill="none" stroke="#000000" d="M3486.4543,-453.6681C3562.6922,-449.0466 3650.9316,-443.961 3731,-440 3940.5989,-429.6312 4171.6304,-420.0755 4371.8369,-412.3917"/>
<polygon fill="#000000" stroke="#000000" points="4372.0912,-415.8846 4381.9498,-412.0041 4371.8231,-408.8897 4372.0912,-415.8846"/>
</g>
</g>
</svg>
